<?xml version="1.0" encoding="utf-8"?>

<!-- License Agreement at http://iconmonstr.com/license/ -->

<!DOCTYPE svg PUBLIC "-//W3C//DTD SVG 1.1//EN" "http://www.w3.org/Graphics/SVG/1.1/DTD/svg11.dtd">
<svg version="1.1" xmlns="http://www.w3.org/2000/svg" xmlns:xlink="http://www.w3.org/1999/xlink" x="0px" y="0px"
	 width="512px" height="512px" viewBox="0 0 512 512" enable-background="new 0 0 512 512" xml:space="preserve">
<path id="coffee-7-icon" d="M234.941,170.117c77.81-73.28-16.099-69.412,1.912-120.117
	C174.739,115.503,259.997,116.972,234.941,170.117z M189.277,170.139c51.797-48.49-10.915-53.243,1.427-87.502
	C147.31,130.446,206.321,131.694,189.277,170.139z M361.382,212.22c-0.557,8.008-1.229,19.135-2.006,26.892h30.584
	c-8.105,28.971-24.856,58.874-49.106,80.641c-4.112,12.994-8.104,25.443-16.287,43.056c55.018-30.312,92.185-97.663,96.991-150.588
	H361.382z M100.495,184.63c3.727,109.516,33.545,169.033,63.098,222.099h112.65c28.84-51.45,59.406-113.52,63.098-222.099H100.495z
	 M349.25,462H90.442v-30.271H349.25V462z"/>
</svg>
