<?xml version="1.0" encoding="utf-8"?>

<!-- License Agreement at http://iconmonstr.com/license/ -->

<!DOCTYPE svg PUBLIC "-//W3C//DTD SVG 1.1//EN" "http://www.w3.org/Graphics/SVG/1.1/DTD/svg11.dtd">
<svg version="1.1" xmlns="http://www.w3.org/2000/svg" xmlns:xlink="http://www.w3.org/1999/xlink" x="0px" y="0px"
	 width="512px" height="512px" viewBox="0 0 512 512" enable-background="new 0 0 512 512" xml:space="preserve">
<path id="christmas-snowflake-2-icon" d="M440.161,349.025l-31.736-18.323l31.188-8.562l-5.863-21.56l-52.587,14.38l-20.951-12.096
	l67.591-18.314l-5.865-21.559l-88.987,24.133c-23.614-13.633-23.624-48.611-0.001-62.25l88.988,24.134l5.863-21.56l-67.59-18.314
	l20.951-12.096l52.587,14.38l5.864-21.56l-31.188-8.561l31.735-18.323l-11.519-19.95l-31.735,18.322l8.179-31.29l-21.604-5.702
	l-13.839,52.731l-20.951,12.097l17.935-67.692l-21.604-5.701l-23.592,89.133c-25.807,14.898-53.911-2.8-53.911-31.125l65.396-64.999
	L317.175,92.94l-49.656,49.379v-24.193l38.747-38.351l-15.739-15.858l-23.008,22.729V50h-23.037v36.646l-23.008-22.729
	l-15.739,15.858l38.747,38.351v24.193L194.825,92.94l-15.739,15.858l65.396,64.999c0,28.651-28.235,45.949-53.911,31.125
	l-23.592-89.133l-21.604,5.701l17.935,67.692l-20.951-12.097l-13.839-52.731l-21.604,5.702l8.179,31.29l-31.735-18.322
	l-11.519,19.95l31.735,18.323l-31.188,8.561l5.864,21.56l52.587-14.38l20.951,12.096L84.2,227.449l5.863,21.56l88.988-24.134
	c23.207,13.398,26.575,46.906-0.001,62.25l-88.987-24.133l-5.865,21.559l67.591,18.314l-20.951,12.096l-52.587-14.38l-5.863,21.56
	l31.188,8.562l-31.736,18.323l11.519,19.95l31.736-18.322l-8.179,31.289l21.603,5.702l13.839-52.732l20.952-12.096l-17.935,67.692
	l21.603,5.701l23.594-89.133c25.531-14.74,53.911,2.38,53.911,31.125l-65.396,64.999l15.739,15.858l49.656-49.379v24.193
	l-38.747,38.351l15.739,15.858l23.008-22.729V462h23.037v-36.646l23.008,22.729l15.739-15.858l-38.747-38.351v-24.193l49.656,49.379
	l15.739-15.858l-65.396-64.999c0-29.077,28.508-45.792,53.911-31.125l23.594,89.133l21.603-5.701l-17.935-67.692l20.952,12.096
	l13.839,52.732l21.603-5.702l-8.179-31.289l31.736,18.322L440.161,349.025z M292.796,277.244L256,298.488l-36.796-21.244v-42.488
	L256,213.512l36.796,21.244V277.244z"/>
</svg>
