<?xml version="1.0" encoding="utf-8"?>

<!-- The icon can be used freely in both personal and commercial projects with no attribution required, but always appreciated. 
You may NOT sub-license, resell, rent, redistribute or otherwise transfer the icon without express written permission from iconmonstr.com -->

<!DOCTYPE svg PUBLIC "-//W3C//DTD SVG 1.1//EN" "http://www.w3.org/Graphics/SVG/1.1/DTD/svg11.dtd">
<svg version="1.1" xmlns="http://www.w3.org/2000/svg" xmlns:xlink="http://www.w3.org/1999/xlink" x="0px" y="0px"
	 width="512px" height="512px" viewBox="0 0 512 512" enable-background="new 0 0 512 512" xml:space="preserve">
<path id="target-5-icon" d="M461.151,295.866l-95.462,0.008c-17.453-16.023-40.285-24.913-63.982-24.912l-102.966,0.005
	c-3.953,15.942-13.321,27.291-24.274,27.534c-14.57,0.323-26.428-19.124-26.483-43.42c-0.056-24.301,11.712-44.26,26.282-44.584
	c10.867-0.239,20.221,10.511,24.299,26.068l103.278-0.004c23.593-0.004,46.406-8.809,63.979-24.918l95.325-0.005l-41.174,43.054
	L461.151,295.866z M270.388,298.33c-4.461,27.402-13.076,52.632-25.365,73.479c-18.729,31.769-43.69,49.581-70.273,50.172
	c-26.586,0.59-51.625-16.112-70.496-47.046c-18.873-30.934-29.322-72.39-29.424-116.723s10.158-86.251,28.887-118.019
	c18.73-31.771,43.688-49.593,70.273-50.185c26.584-0.59,51.625,16.123,70.496,47.057c12.352,20.245,21.067,45.014,25.663,72.131
	l24.79-0.002c-12.325-92.285-61.905-160.488-121.04-159.176c-68.219,1.517-123.31,94.962-123.05,208.726
	c0.26,113.761,55.771,204.753,123.99,203.237c58.948-1.311,108.085-71.266,120.188-163.652L270.388,298.33z M174.083,131.172
	c-41.337,0.918-74.722,57.558-74.564,126.492c0.158,68.933,33.799,124.073,75.137,123.156c32.074-0.714,59.356-34.972,69.901-82.488
	l-26.37,0.001c-8.826,25.039-25.057,42.083-43.624,42.496c-28.049,0.623-50.956-36.925-51.063-83.698
	c-0.105-46.774,22.627-85.337,50.676-85.96c17.924-0.396,33.734,14.805,42.852,38.026l27.016-0.001
	C233.067,162.873,205.851,130.465,174.083,131.172z"/>
</svg>
