<?xml version="1.0" encoding="utf-8"?>

<!-- The icon can be used freely in both personal and commercial projects with no attribution required, but always appreciated. 
You may NOT sub-license, resell, rent, redistribute or otherwise transfer the icon without express written permission from iconmonstr.com -->

<!DOCTYPE svg PUBLIC "-//W3C//DTD SVG 1.1//EN" "http://www.w3.org/Graphics/SVG/1.1/DTD/svg11.dtd">
<svg version="1.1" xmlns="http://www.w3.org/2000/svg" xmlns:xlink="http://www.w3.org/1999/xlink" x="0px" y="0px"
	 width="512px" height="512px" viewBox="0 0 512 512" enable-background="new 0 0 512 512" xml:space="preserve">
<path id="bug-fix-icon" d="M340.255,61.002c0-6.076,4.924-11.002,11.002-11.002c6.074,0,10.999,4.926,10.999,11.002
	s-4.925,11-10.999,11C345.179,72.002,340.255,67.078,340.255,61.002z M248.499,117.381v-11.664c-3.729-0.9-6.5-4.25-6.5-8.254
	s2.771-7.354,6.5-8.254V78.934h-37.502v38.447c6.037-1.248,12.314-1.914,18.75-1.914
	C236.185,115.467,242.462,116.133,248.499,117.381z M149.744,202.942h160.009V462H149.744V202.942z M211.505,285.303
	c0,2.687,1.886,4.911,4.377,5.468c1.261,0.282,2.349,1.071,3.008,2.182c2.564,4.314-1.102,7.988-4.151,11.87
	c9.177,4.801,22.94,4.801,32.117,0c-3.004-3.823-6.697-7.587-4.152-11.87c0.659-1.11,1.749-1.899,3.009-2.182
	c2.491-0.557,4.377-2.781,4.377-5.468c0-3.094-2.509-5.602-5.602-5.602c-3.698,0-6.371,3.519-5.408,7.067
	c0.363,1.338,0.168,2.767-0.541,3.958c-1.582,2.665-4.293,4.27-7.741,4.288c-3.497-0.019-6.172-1.646-7.742-4.288
	c-0.708-1.191-0.903-2.62-0.54-3.958c0.964-3.553-1.715-7.067-5.408-7.067C214.014,279.701,211.505,282.209,211.505,285.303z
	 M183.796,337.058c0,2.279,1.848,4.127,4.128,4.127h9.351c2.242,0,4.538,1.48,4.952,4.204c0.442,2.896-0.892,4.889-2.94,5.815
	l-9.479,4.289c-2.077,0.939-2.999,3.384-2.06,5.461c0.939,2.079,3.388,2.998,5.462,2.06l10.028-4.536
	c1.202-0.544,2.695-0.424,3.527,1.029c4.092,7.147,12.317,14.362,24.032,15.688c11.485-1.3,19.617-8.261,23.786-15.269
	c1.021-1.717,2.459-2.045,3.773-1.449l10.028,4.536c2.072,0.938,4.521,0.021,5.462-2.06c0.939-2.077,0.018-4.521-2.06-5.461
	l-9.479-4.289c-1.939-0.878-3.396-2.935-2.99-5.501c0.508-3.198,2.816-4.519,5.002-4.519h9.351c2.28,0,4.128-1.848,4.128-4.127
	s-1.848-4.128-4.128-4.128h-9.409c-2.254,0-4.453-1.562-4.807-4.187c-0.359-2.693,1.121-4.562,2.995-5.301l8.74-3.447
	c2.121-0.837,3.162-3.234,2.325-5.354c-0.836-2.12-3.232-3.162-5.354-2.326l-8.988,3.545c-1.285,0.507-2.875,0.145-3.625-1.598
	c-0.878-2.037-1.873-3.941-2.974-5.668c-8.025,3.613-14.9,5.421-21.777,5.421c-6.874,0-13.751-1.806-21.777-5.421
	c-1.075,1.687-2.05,3.541-2.912,5.524c-0.89,2.046-2.533,2.197-3.688,1.741l-8.987-3.545c-2.121-0.836-4.519,0.206-5.354,2.326
	c-0.837,2.12,0.203,4.518,2.325,5.354l8.74,3.447c1.942,0.766,3.346,2.761,3.026,5.068c-0.416,3.016-2.674,4.419-4.838,4.419h-9.409
	C185.644,332.93,183.796,334.778,183.796,337.058z M229.747,130.467c-34.906,0-63.646,22.95-67.465,52.474h134.932
	C293.396,153.417,264.655,130.467,229.747,130.467z M314.253,69.309c-6.076,0-11,4.924-11,11s4.924,11,11,11s11.002-4.924,11.002-11
	S320.329,69.309,314.253,69.309z M351.257,86.713c-6.078,0-11.002,4.924-11.002,11s4.924,11.002,11.002,11.002
	c6.074,0,10.999-4.926,10.999-11.002S357.331,86.713,351.257,86.713z M351.257,123.424c-6.078,0-11.002,4.924-11.002,11
	s4.924,11,11.002,11c6.074,0,10.999-4.924,10.999-11S357.331,123.424,351.257,123.424z M277.46,108.715c6.074,0,11-4.928,11-11.002
	c0-6.076-4.926-11-11-11c-6.076,0-11,4.924-11,11C266.46,103.787,271.384,108.715,277.46,108.715z M314.253,104.213
	c-6.076,0-11,4.926-11,11.002s4.924,11,11,11s11.002-4.924,11.002-11S320.329,104.213,314.253,104.213z"/>
</svg>
