<?xml version="1.0" encoding="utf-8"?>

<!-- License Agreement at http://iconmonstr.com/license/ -->

<!DOCTYPE svg PUBLIC "-//W3C//DTD SVG 1.1//EN" "http://www.w3.org/Graphics/SVG/1.1/DTD/svg11.dtd">
<svg version="1.1" xmlns="http://www.w3.org/2000/svg" xmlns:xlink="http://www.w3.org/1999/xlink" x="0px" y="0px"
	 width="512px" height="512px" viewBox="0 0 512 512" style="enable-background:new 0 0 512 512;" xml:space="preserve">
<path id="anchor-8-icon" d="M400.75,256.141l-52.251,90.5h33.522v9.088c0,43.938-25.583,66.285-53.912,66.285
	c-25.941,0-52.116-19.153-52.116-61.941l0.028-84.978h48.289v-39.986h-48.289v-3.827v-0.188c0-54.802,48.77-60.064,48.77-112.301
	C324.791,80.859,293.932,50,256,50c-37.931,0-68.791,30.859-68.791,68.792c0,52.676,48.77,57.032,48.77,112.3v0.189v3.827h-48.289
	v39.986h48.317v84.978c0,42.788-26.175,61.941-52.116,61.941c-28.27,0-53.912-22.279-53.912-66.285v-9.088h33.522l-52.251-90.5
	l-52.251,90.5h30.993v9.088c0,66.562,43.873,106.271,93.898,106.271c27.087,0,54.367-12.265,72.129-36.146
	c17.05,22.949,43.343,36.146,72.09,36.146c49.936,0,93.898-39.613,93.898-106.271v-9.088h30.993L400.75,256.141z M227.252,118.792
	c0-15.853,12.896-28.748,28.748-28.748s28.748,12.896,28.748,28.748c0,15.851-12.896,28.747-28.748,28.747
	S227.252,134.643,227.252,118.792z"/>
</svg>
