<?xml version="1.0" encoding="utf-8"?>

<!-- License Agreement at http://iconmonstr.com/license/ -->

<!DOCTYPE svg PUBLIC "-//W3C//DTD SVG 1.1//EN" "http://www.w3.org/Graphics/SVG/1.1/DTD/svg11.dtd">
<svg version="1.1" xmlns="http://www.w3.org/2000/svg" xmlns:xlink="http://www.w3.org/1999/xlink" x="0px" y="0px"
	 width="512px" height="512px" viewBox="0 0 512 512" enable-background="new 0 0 512 512" xml:space="preserve">
<path id="christmas-stocking-icon" d="M169.539,237.491l27.742,48.051c36.078,62.49-79.438,81.088-40.132,149.17
	c15.065,26.094,48.435,35.035,74.528,19.971l129.748-74.91c26.095-15.066,35.036-48.436,19.971-74.529l-82.302-142.551
	L169.539,237.491z M219.391,433.399c-14.318,8.268-32.692,3.344-40.958-10.975c-4.864-8.424-5.513-14.039-4.667-18.457
	c23.744-7.211,49.68-0.564,67.01,17.086L219.391,433.399z M360.113,317.53c8.268,14.318,3.344,32.693-10.975,40.961l-28.343,16.361
	c-11.249-30.779-2.344-65.482,22.147-87.062L360.113,317.53z M265.951,50.849c-3.916-1.428-8.252-1.04-11.896,1.064
	c-4.063,2.346-6.756,6.485-7.2,11.073c-0.302,3.118,0.431,6.229,2.104,9.128c3.73,6.461,14.092,9.601-0.343,17.934l-110.78,63.959
	c-14.959,8.637-19.053,29.551-9.145,46.715c9.91,17.162,30.069,24.075,45.027,15.438l107.943-62.321
	c14.958-8.635,19.051-29.55,9.142-46.713c-0.323-0.561-0.658-1.11-1.003-1.649c-6.483-10.121-10.136-21.606-10.743-33.61
	c-0.132-2.587-0.618-5.182-1.537-7.714C274.383,55.499,269.497,52.142,265.951,50.849z M268.732,136.358l-103.688,59.863
	c-5.691,3.287-13.105,1.557-17.643-6.303c-4.536-7.855-2.328-15.145,3.363-18.43l103.688-59.865
	c5.692-3.287,13.105-1.553,17.642,6.303C276.632,125.786,274.426,133.071,268.732,136.358z M269.821,66.944
	c2.069,5.711,1.008,11.861-1.285,16.947c-1.476-4.074-4.659-8.174-9.592-12.475c-2.819-2.459-4.181-5.102-3.935-7.643
	c0.188-1.959,1.363-3.742,3.142-4.768c0.905-0.523,2.758-1.279,4.994-0.463C265.842,59.528,268.213,62.511,269.821,66.944z"/>
</svg>
