<?xml version="1.0" encoding="utf-8"?>
<!-- Generator: Adobe Illustrator 16.0.0, SVG Export Plug-In . SVG Version: 6.00 Build 0)  -->
<!DOCTYPE svg PUBLIC "-//W3C//DTD SVG 1.1//EN" "http://www.w3.org/Graphics/SVG/1.1/DTD/svg11.dtd">
<svg version="1.1" id="Layer_1" xmlns="http://www.w3.org/2000/svg" xmlns:xlink="http://www.w3.org/1999/xlink" x="0px" y="0px"
	 width="30px" height="24px" viewBox="241 244 30 24" enable-background="new 241 244 30 24" xml:space="preserve">
<path id="refresh-3-icon" fill="#D4D4D4" d="M264.535,247.741l-2.712,2.712c-1.473-1.472-3.507-2.383-5.754-2.383
	c-4.494,0-8.137,3.645-8.137,8.139c0,0.001,0-0.001,0,0h3.161l-5.049,5.047L241,256.209h3.096c0,0,0,0,0,0
	c0-6.613,5.361-11.975,11.974-11.975C259.375,244.234,262.369,245.574,264.535,247.741z M271,255.791l-5.044-5.047l-5.049,5.047
	h3.161c0,0.001,0-0.001,0,0c0,4.494-3.644,8.139-8.138,8.139c-2.247,0-4.281-0.91-5.754-2.383l-2.712,2.712
	c2.167,2.167,5.16,3.508,8.466,3.508c6.612,0,11.974-5.363,11.974-11.976c0,0,0,0,0,0H271L271,255.791z"/>
</svg>
